<svg version="1.1" xmlns="http://www.w3.org/2000/svg" viewBox="0 0 2151.0714285714275 788.5714285714283" width="2151.0714285714275" height="788.5714285714283">
  <!-- svg-source:excalidraw -->

  <defs>
    <style class="style-fonts">
      @font-face {
        font-family: "Virgil";
        src: url("https://excalidraw.com/Virgil.woff2");
      }
      @font-face {
        font-family: "Cascadia";
        src: url("https://excalidraw.com/Cascadia.woff2");
      }
      @font-face {
        font-family: "Assistant";
        src: url("https://excalidraw.com/Assistant-Regular.woff2");
      }
    </style>

  </defs>
  <rect x="0" y="0" width="2151.0714285714275" height="788.5714285714283" fill="#ffffff"></rect><g stroke-linecap="round" transform="translate(12.619047619047706 376.5476190476189) rotate(0 145 25)"><path d="M12.5 0 C102.82 0.59, 191.66 1.14, 277.5 0 M12.5 0 C84.04 -1.72, 156.41 -1.98, 277.5 0 M277.5 0 C284.55 -1.88, 288.14 5.08, 290 12.5 M277.5 0 C284.45 -0.28, 288.24 5.53, 290 12.5 M290 12.5 C290.57 20.46, 289.26 25.49, 290 37.5 M290 12.5 C289.51 21.2, 289.42 32.1, 290 37.5 M290 37.5 C288.55 45.89, 286.58 50.94, 277.5 50 M290 37.5 C287.71 44.27, 283.63 48.1, 277.5 50 M277.5 50 C218.76 49.78, 160.26 49.87, 12.5 50 M277.5 50 C186.34 50.28, 96.28 50.37, 12.5 50 M12.5 50 C3.25 51.07, 0.62 44.31, 0 37.5 M12.5 50 C1.93 51.58, 1.55 47.36, 0 37.5 M0 37.5 C1.65 31.42, 1.6 26.08, 0 12.5 M0 37.5 C0.25 28.36, -0.2 20.47, 0 12.5 M0 12.5 C0.49 4.63, 4.79 1.83, 12.5 0 M0 12.5 C-0.91 2.4, 4.97 0.13, 12.5 0" stroke="#1e1e1e" stroke-width="2" fill="none"></path></g><g transform="translate(34.619047619047706 384.7476190476189) rotate(0 123 16.8)"><text x="123" y="27.0375" font-family="Cascadia, Segoe UI Emoji" font-size="28px" fill="#1e1e1e" text-anchor="middle" style="white-space: pre;" direction="ltr" dominant-baseline="alphabetic">pages/home.html</text></g><g stroke-linecap="round" transform="translate(10 445.1190476190475) rotate(0 145 23.571428571428555)"><path d="M11.79 0 C112.91 0, 213.28 0.83, 278.21 0 M11.79 0 C113 1, 213.39 2.04, 278.21 0 M278.21 0 C287.65 0.59, 291.07 1.97, 290 11.79 M278.21 0 C283.98 -0.11, 288.69 4.16, 290 11.79 M290 11.79 C290.72 17.92, 289.04 27.39, 290 35.36 M290 11.79 C290.33 17.39, 290.46 24.96, 290 35.36 M290 35.36 C291.95 43.13, 285.29 47.33, 278.21 47.14 M290 35.36 C291.16 43.75, 287.75 46.19, 278.21 47.14 M278.21 47.14 C208.13 46.79, 138.98 46.04, 11.79 47.14 M278.21 47.14 C175.51 47.46, 74.56 47.84, 11.79 47.14 M11.79 47.14 C5.35 45.46, 0.42 42.35, 0 35.36 M11.79 47.14 C2.25 45.64, -1.8 42.69, 0 35.36 M0 35.36 C0.5 26.67, 0.29 22.37, 0 11.79 M0 35.36 C-0.81 27.69, -0.48 20.63, 0 11.79 M0 11.79 C-1.69 5.8, 5.79 1.67, 11.79 0 M0 11.79 C1.91 3.16, 5.17 1.5, 11.79 0" stroke="#1e1e1e" stroke-width="2" fill="none"></path></g><g transform="translate(105.79999923706055 451.890476190476) rotate(0 49.20000076293945 16.8)"><text x="49.20000076293945" y="27.0375" font-family="Cascadia, Segoe UI Emoji" font-size="28px" fill="#1e1e1e" text-anchor="middle" style="white-space: pre;" direction="ltr" dominant-baseline="alphabetic">/login</text></g><g stroke-linecap="round" transform="translate(16.904761904761926 669.4047619047618) rotate(0 145 51.66666666666673)"><path d="M25.83 0 C77.09 0.45, 129.86 -0.33, 264.17 0 M25.83 0 C78.66 1.64, 130.75 2.01, 264.17 0 M264.17 0 C280.48 -1.5, 289.24 9.69, 290 25.83 M264.17 0 C279.57 0.71, 290.99 8.61, 290 25.83 M290 25.83 C290.53 46.92, 291.36 67.48, 290 77.5 M290 25.83 C289.85 45.45, 290.14 65.66, 290 77.5 M290 77.5 C290.15 93.73, 280.33 102.43, 264.17 103.33 M290 77.5 C289.74 92.82, 279.39 105.19, 264.17 103.33 M264.17 103.33 C185.42 103.37, 108.54 103.84, 25.83 103.33 M264.17 103.33 C211.36 104.46, 159.27 102.96, 25.83 103.33 M25.83 103.33 C9.36 102.29, -1.61 95.98, 0 77.5 M25.83 103.33 C10 103.23, -0.03 92.44, 0 77.5 M0 77.5 C-0.92 63.82, 1.66 48.97, 0 25.83 M0 77.5 C0.79 63.24, 0.29 50.19, 0 25.83 M0 25.83 C1.15 8.52, 10.17 -0.21, 25.83 0 M0 25.83 C-0.41 7.41, 9.88 -1.15, 25.83 0" stroke="#1e1e1e" stroke-width="2" fill="none"></path></g><g transform="translate(79.90476190476193 704.2714285714285) rotate(0 82 16.80000000000001)"><text x="82" y="27.0375" font-family="Cascadia, Segoe UI Emoji" font-size="28px" fill="#1e1e1e" text-anchor="middle" style="white-space: pre;" direction="ltr" dominant-baseline="alphabetic">/rest/v1/*</text></g><g stroke-linecap="round" transform="translate(463.57142857142844 677.7380952380951) rotate(0 145 45.0000000000001)"><path d="M22.5 0 C102.62 -2.54, 182.11 -2.72, 267.5 0 M22.5 0 C82.98 1.06, 143 0.15, 267.5 0 M267.5 0 C282.26 -0.89, 290.47 6.43, 290 22.5 M267.5 0 C281.87 -0.13, 292.17 8.36, 290 22.5 M290 22.5 C291.6 35.87, 291.43 54.23, 290 67.5 M290 22.5 C288.94 35.72, 289.1 50.37, 290 67.5 M290 67.5 C291.41 82.69, 284.28 90.07, 267.5 90 M290 67.5 C288.92 83.58, 280.95 92.25, 267.5 90 M267.5 90 C211.92 89.95, 160.93 87.71, 22.5 90 M267.5 90 C170.35 88.33, 72.15 88.49, 22.5 90 M22.5 90 C8.61 89.76, -1.67 82.68, 0 67.5 M22.5 90 C6.16 90.66, 0.59 82.77, 0 67.5 M0 67.5 C0.02 56.15, 1.05 48.76, 0 22.5 M0 67.5 C0.17 56.72, 0.79 44.84, 0 22.5 M0 22.5 C-1.06 5.65, 8.6 0.3, 22.5 0 M0 22.5 C-0.67 9.55, 8.06 2.07, 22.5 0" stroke="#1e1e1e" stroke-width="2" fill="none"></path></g><g transform="translate(510.17142704554954 705.9380952380952) rotate(0 98.4000015258789 16.80000000000001)"><text x="98.4000015258789" y="27.0375" font-family="Cascadia, Segoe UI Emoji" font-size="28px" fill="#1e1e1e" text-anchor="middle" style="white-space: pre;" direction="ltr" dominant-baseline="alphabetic">ReverseProxy</text></g><g stroke-linecap="round"><g transform="translate(319.4047619047619 723.5714285714284) rotate(0 65 -1.6666666666667425)"><path d="M-0.86 -0.38 C20.88 -0.75, 108.66 -2.93, 130.63 -3.29 M0.89 -1.63 C22.52 -1.69, 108.38 -1.26, 130.01 -1.73" stroke="#1e1e1e" stroke-width="2" fill="none"></path></g><g transform="translate(319.4047619047619 723.5714285714284) rotate(0 65 -1.6666666666667425)"><path d="M106.58 6.97 C113.39 5.45, 121.47 3.23, 130.01 -1.73 M106.58 6.97 C115.26 2.78, 123.56 -0.04, 130.01 -1.73" stroke="#1e1e1e" stroke-width="2" fill="none"></path></g><g transform="translate(319.4047619047619 723.5714285714284) rotate(0 65 -1.6666666666667425)"><path d="M106.46 -10.13 C113.16 -6.27, 121.27 -3.11, 130.01 -1.73 M106.46 -10.13 C115.34 -8.04, 123.67 -4.57, 130.01 -1.73" stroke="#1e1e1e" stroke-width="2" fill="none"></path></g></g><mask></mask><g stroke-linecap="round" transform="translate(463.57142857142844 386.07142857142856) rotate(0 145 90.83333333333331)"><path d="M32 0 C85.37 2.41, 139.03 1.23, 258 0 M32 0 C83.47 -0.13, 134.86 -0.77, 258 0 M258 0 C280.41 0.06, 288.59 12.21, 290 32 M258 0 C280.56 1.54, 291.98 9.14, 290 32 M290 32 C290.6 68.44, 288.64 107.15, 290 149.67 M290 32 C291.14 70.35, 290.35 108.92, 290 149.67 M290 149.67 C288.57 170.26, 277.36 182.15, 258 181.67 M290 149.67 C288.18 171.03, 277.25 182.26, 258 181.67 M258 181.67 C199.85 181.89, 141.26 181.91, 32 181.67 M258 181.67 C204.12 179.49, 149.95 180.58, 32 181.67 M32 181.67 C8.68 182.72, -1.63 172.22, 0 149.67 M32 181.67 C8.8 181.48, 2.26 169.49, 0 149.67 M0 149.67 C-2.33 108.71, -2.44 64.62, 0 32 M0 149.67 C-0.69 113.71, -0.26 79.23, 0 32 M0 32 C0.05 9.34, 10.84 0.69, 32 0 M0 32 C0.2 9.14, 12.6 1.51, 32 0" stroke="#1e1e1e" stroke-width="2" fill="none"></path></g><g transform="translate(518.3714316231863 460.10476190476186) rotate(0 90.19999694824219 16.8)"><text x="90.19999694824219" y="27.0375" font-family="Cascadia, Segoe UI Emoji" font-size="28px" fill="#1e1e1e" text-anchor="middle" style="white-space: pre;" direction="ltr" dominant-baseline="alphabetic">Controllers</text></g><g stroke-linecap="round"><g transform="translate(309.16666666666697 473.52465660275806) rotate(0 69.64285714285666 -1.0983054242220156)"><path d="M1.05 1 C24.29 0.88, 116.06 -0.79, 139.25 -1.21 M0.13 0.48 C23.23 0.08, 114.98 -2.15, 138.29 -2.82" stroke="#1e1e1e" stroke-width="2" fill="none"></path></g><g transform="translate(309.16666666666697 473.52465660275806) rotate(0 69.64285714285666 -1.0983054242220156)"><path d="M115.03 6.34 C123.33 3.49, 129.91 2.53, 138.29 -2.82 M115.03 6.34 C122.76 3.15, 131.99 0.21, 138.29 -2.82" stroke="#1e1e1e" stroke-width="2" fill="none"></path></g><g transform="translate(309.16666666666697 473.52465660275806) rotate(0 69.64285714285666 -1.0983054242220156)"><path d="M114.58 -10.75 C122.95 -8.76, 129.65 -4.86, 138.29 -2.82 M114.58 -10.75 C122.38 -7.89, 131.77 -4.76, 138.29 -2.82" stroke="#1e1e1e" stroke-width="2" fill="none"></path></g></g><mask></mask><g stroke-linecap="round"><g transform="translate(308.4523809523812 413.0558324156188) rotate(0 71.4285714285711 -2.6525798369697995)"><path d="M-0.22 -0.63 C23.4 -1.77, 117.98 -5.55, 141.73 -6.47 M-1.8 1.66 C22.18 0.58, 120.02 -4.39, 143.86 -5.55" stroke="#1e1e1e" stroke-width="2" fill="none"></path></g><g transform="translate(308.4523809523812 413.0558324156188) rotate(0 71.4285714285711 -2.6525798369697995)"><path d="M120.82 4.16 C126.64 -0.57, 132.64 -2.55, 143.86 -5.55 M120.82 4.16 C126.35 2.75, 131.97 0.63, 143.86 -5.55" stroke="#1e1e1e" stroke-width="2" fill="none"></path></g><g transform="translate(308.4523809523812 413.0558324156188) rotate(0 71.4285714285711 -2.6525798369697995)"><path d="M119.97 -12.92 C126.1 -12.54, 132.35 -9.4, 143.86 -5.55 M119.97 -12.92 C125.79 -10.42, 131.6 -8.64, 143.86 -5.55" stroke="#1e1e1e" stroke-width="2" fill="none"></path></g></g><mask></mask><g stroke-linecap="round" transform="translate(1206.0714285714275 545.2380952380952) rotate(0 107.50000000000068 49.16666666666657)"><path d="M24.58 0 C90.42 -1.44, 155.42 1.78, 190.42 0 M24.58 0 C76.36 1.27, 129.05 2.38, 190.42 0 M190.42 0 C208.74 1.2, 216.7 7.47, 215 24.58 M190.42 0 C206.7 -0.67, 216.87 9.79, 215 24.58 M215 24.58 C216.1 37.59, 214.37 54.43, 215 73.75 M215 24.58 C214.51 38.87, 215.1 53.13, 215 73.75 M215 73.75 C214.5 91.74, 205.61 98.39, 190.42 98.33 M215 73.75 C214.42 92.16, 208.62 98.47, 190.42 98.33 M190.42 98.33 C126.22 98.26, 63.36 97.54, 24.58 98.33 M190.42 98.33 C147.19 98.53, 105.55 98.31, 24.58 98.33 M24.58 98.33 C7.67 98.04, 1.94 88.6, 0 73.75 M24.58 98.33 C6.7 96.65, 1.15 88.68, 0 73.75 M0 73.75 C-0.85 55.86, 1.81 36.69, 0 24.58 M0 73.75 C0.57 55.95, 0.44 36.66, 0 24.58 M0 24.58 C0.39 10.19, 9.49 0.95, 24.58 0 M0 24.58 C-2.14 9.81, 10.11 -0.76, 24.58 0" stroke="#1e1e1e" stroke-width="2" fill="none"></path></g><g transform="translate(1231.5714285714284 577.6047619047617) rotate(0 82 16.800000000000004)"><text x="82" y="27.0375" font-family="Cascadia, Segoe UI Emoji" font-size="28px" fill="#1e1e1e" text-anchor="middle" style="white-space: pre;" direction="ltr" dominant-baseline="alphabetic">AuthClient</text></g><g mask="url(#mask-ItM_cxLvyD9GConGaxJ9_)" stroke-linecap="round"><g transform="translate(1434.3998995663828 566.7572647357069) rotate(0 204.37743116918932 -1.4521550909010088)"><path d="M-0.73 1.19 C67.38 0.62, 340.03 -2.29, 408.41 -2.99 M1.09 0.77 C69.03 0.36, 339.26 -1.07, 407.28 -1.49" stroke="#1e1e1e" stroke-width="2" fill="none"></path></g><g transform="translate(1434.3998995663828 566.7572647357069) rotate(0 204.37743116918932 -1.4521550909010088)"><path d="M383.83 7.19 C392.32 4.33, 396.74 3.8, 407.28 -1.49 M383.83 7.19 C391.2 5.01, 396.59 3.11, 407.28 -1.49" stroke="#1e1e1e" stroke-width="2" fill="none"></path></g><g transform="translate(1434.3998995663828 566.7572647357069) rotate(0 204.37743116918932 -1.4521550909010088)"><path d="M383.74 -9.91 C392.31 -8, 396.75 -3.76, 407.28 -1.49 M383.74 -9.91 C391.07 -7.13, 396.48 -4.08, 407.28 -1.49" stroke="#1e1e1e" stroke-width="2" fill="none"></path></g></g><mask id="mask-ItM_cxLvyD9GConGaxJ9_"><rect x="0" y="0" fill="#fff" width="1943.1547619047615" height="669.6615749175089"></rect><rect x="1605.977331498511" y="548.505109644806" fill="#000" width="65.5999984741211" height="33.6" opacity="1"></rect></mask><g transform="translate(1605.9773314985114 548.505109644806) rotate(0 32.26212251931452 17.352957670390595)"><text x="32.79999923706055" y="27.0375" font-family="Cascadia, Segoe UI Emoji" font-size="28px" fill="#1e1e1e" text-anchor="middle" style="white-space: pre;" direction="ltr" dominant-baseline="alphabetic">Do()</text></g><g stroke-linecap="round" transform="translate(1859.4047619047615 60.23809523809507) rotate(0 140.83333333333303 359.16666666666663)"><path d="M32 0 C95.31 1.72, 159.99 0.99, 249.67 0 M32 0 C116.79 -1.86, 199.55 -1.02, 249.67 0 M249.67 0 C269.15 0.34, 280.28 8.75, 281.67 32 M249.67 0 C270.79 -1.1, 282.18 11.7, 281.67 32 M281.67 32 C283.27 223.24, 283.36 415.56, 281.67 686.33 M281.67 32 C280.5 176.7, 281 320.97, 281.67 686.33 M281.67 686.33 C281.91 705.91, 271.54 718.98, 249.67 718.33 M281.67 686.33 C279.42 708.5, 270.27 720.24, 249.67 718.33 M249.67 718.33 C196.72 720.9, 141.73 720.46, 32 718.33 M249.67 718.33 C199 718.92, 147.83 718.1, 32 718.33 M32 718.33 C9.6 716.66, -0.93 709.18, 0 686.33 M32 718.33 C9 716.42, -0.45 709.62, 0 686.33 M0 686.33 C-2.45 501.49, -2.11 316.18, 0 32 M0 686.33 C-0.43 551.32, -0.56 415.89, 0 32 M0 32 C-0.93 11.95, 9.96 -0.46, 32 0 M0 32 C-0.16 10.26, 8.83 0.53, 32 0" stroke="#1e1e1e" stroke-width="2" fill="none"></path></g><g transform="translate(1926.4380921863367 402.6047619047617) rotate(0 73.80000305175781 16.8)"><text x="73.80000305175781" y="27.0375" font-family="Cascadia, Segoe UI Emoji" font-size="28px" fill="#1e1e1e" text-anchor="middle" style="white-space: pre;" direction="ltr" dominant-baseline="alphabetic">Domru API</text></g><g stroke-linecap="round"><g transform="translate(761.0714285714284 730.9277434376158) rotate(0 220 -58.761957490339014)"><path d="M0.28 -0.17 C73.58 -19.91, 366.97 -98.34, 440.09 -117.83 M-1.03 -1.3 C72.09 -20.91, 365.46 -96.8, 439.18 -116.46" stroke="#1e1e1e" stroke-width="2" fill="none"></path></g><g transform="translate(761.0714285714284 730.9277434376158) rotate(0 220 -58.761957490339014)"><path d="M418.63 -102.23 C424.96 -106.76, 431.4 -113.28, 439.18 -116.46 M418.63 -102.23 C424.64 -107.14, 432.74 -111.7, 439.18 -116.46" stroke="#1e1e1e" stroke-width="2" fill="none"></path></g><g transform="translate(761.0714285714284 730.9277434376158) rotate(0 220 -58.761957490339014)"><path d="M414.29 -118.77 C422.11 -117.93, 429.97 -119.08, 439.18 -116.46 M414.29 -118.77 C421.81 -118.17, 431.36 -117.21, 439.18 -116.46" stroke="#1e1e1e" stroke-width="2" fill="none"></path></g></g><mask></mask><g stroke-linecap="round" transform="translate(832.7380952380945 426.9047619047617) rotate(0 137.50000000000068 43.333333333333314)"><path d="M21.67 0 C75.06 -2.3, 126.69 -2.21, 253.33 0 M21.67 0 C69.79 -1.23, 119.18 -1.29, 253.33 0 M253.33 0 C268.15 -0.12, 273.19 8.09, 275 21.67 M253.33 0 C268.85 -1.13, 274.13 6.71, 275 21.67 M275 21.67 C273.65 35.97, 276.21 55.46, 275 65 M275 21.67 C274.8 30.27, 275.03 40.95, 275 65 M275 65 C275.51 80.92, 267.27 88.47, 253.33 86.67 M275 65 C273.34 81.3, 266.9 87.36, 253.33 86.67 M253.33 86.67 C184.43 84.1, 112.74 83.92, 21.67 86.67 M253.33 86.67 C174.67 87.94, 95.86 87.66, 21.67 86.67 M21.67 86.67 C8.44 85.93, -0.37 79.79, 0 65 M21.67 86.67 C7.1 86.35, -2.08 79.22, 0 65 M0 65 C1.9 55.08, 1.19 43, 0 21.67 M0 65 C-0.23 51.77, -0.72 37.05, 0 21.67 M0 21.67 C-1.22 8.26, 5.29 -0.54, 21.67 0 M0 21.67 C0.99 5.16, 9.25 -1.52, 21.67 0" stroke="#1e1e1e" stroke-width="2" fill="none"></path></g><g transform="translate(880.0380982898532 453.438095238095) rotate(0 90.19999694824219 16.8)"><text x="90.19999694824219" y="27.0375" font-family="Cascadia, Segoe UI Emoji" font-size="28px" fill="#1e1e1e" text-anchor="middle" style="white-space: pre;" direction="ltr" dominant-baseline="alphabetic">ApiWrappers</text></g><g stroke-linecap="round"><g transform="translate(762.7380952380945 471.6710709805285) rotate(0 31.66666666666697 0.041072637267110856)"><path d="M-0.2 -0.63 C10.48 -0.71, 52.88 0.73, 63.31 0.73 M-1.76 1.65 C8.83 1.73, 51.26 -0.83, 62.35 -1.05" stroke="#1e1e1e" stroke-width="2" fill="none"></path></g><g transform="translate(762.7380952380945 471.6710709805285) rotate(0 31.66666666666697 0.041072637267110856)"><path d="M39.23 8.47 C43.53 6.23, 51.11 2.45, 62.35 -1.05 M39.23 8.47 C43.85 5.86, 50.73 4.48, 62.35 -1.05" stroke="#1e1e1e" stroke-width="2" fill="none"></path></g><g transform="translate(762.7380952380945 471.6710709805285) rotate(0 31.66666666666697 0.041072637267110856)"><path d="M38.53 -8.62 C43.16 -6.83, 50.9 -6.6, 62.35 -1.05 M38.53 -8.62 C43.39 -7.06, 50.43 -4.28, 62.35 -1.05" stroke="#1e1e1e" stroke-width="2" fill="none"></path></g></g><mask></mask><g stroke-linecap="round"><g transform="translate(1123.9880952380963 505.6007380265774) rotate(0 38.54166666666515 32.24269904806221)"><path d="M-0.12 1.15 C12.9 11.69, 64.33 53.41, 77.04 63.99 M-1.64 0.7 C11.31 11.35, 62.71 54.38, 76.06 65.26" stroke="#1e1e1e" stroke-width="2" fill="none"></path></g><g transform="translate(1123.9880952380963 505.6007380265774) rotate(0 38.54166666666515 32.24269904806221)"><path d="M52.51 56.88 C59.42 58.58, 61.62 58.8, 76.06 65.26 M52.51 56.88 C60.25 59.99, 66.53 63.18, 76.06 65.26" stroke="#1e1e1e" stroke-width="2" fill="none"></path></g><g transform="translate(1123.9880952380963 505.6007380265774) rotate(0 38.54166666666515 32.24269904806221)"><path d="M63.41 43.7 C68.11 48.16, 68.02 51.14, 76.06 65.26 M63.41 43.7 C67.65 50.85, 70.54 58.14, 76.06 65.26" stroke="#1e1e1e" stroke-width="2" fill="none"></path></g></g><mask></mask><g mask="url(#mask-ehVPNKHWwESyVkTCBJODA)" stroke-linecap="round"><g transform="translate(1162.8026917087732 289.76190476190504) rotate(0 54.37809119333292 126.07142857142861)"><path d="M-0.12 -1.1 C18.04 40.65, 89.9 209.46, 108.24 251.58 M-1.64 0.93 C16.38 43.36, 88.45 210.86, 107.02 252.83" stroke="#1e1e1e" stroke-width="2" fill="none"></path></g><g transform="translate(1162.8026917087732 289.76190476190504) rotate(0 54.37809119333292 126.07142857142861)"><path d="M89.8 234.7 C92.27 238.22, 97.32 245.42, 107.02 252.83 M89.8 234.7 C94.67 238.6, 98.1 244.11, 107.02 252.83" stroke="#1e1e1e" stroke-width="2" fill="none"></path></g><g transform="translate(1162.8026917087732 289.76190476190504) rotate(0 54.37809119333292 126.07142857142861)"><path d="M105.48 227.88 C104.23 233.02, 105.51 241.87, 107.02 252.83 M105.48 227.88 C106.26 233.52, 105.62 240.8, 107.02 252.83" stroke="#1e1e1e" stroke-width="2" fill="none"></path></g></g><mask id="mask-ehVPNKHWwESyVkTCBJODA"><rect x="0" y="0" fill="#fff" width="1371.558874095439" height="641.9047619047623"></rect><rect x="1135.1807829021068" y="399.03333333333364" fill="#000" width="164" height="33.6" opacity="1"></rect></mask><g transform="translate(1135.1807829021068 399.03333333333364) rotate(0 80.92223939294445 16.591715773916803)"><text x="82" y="27.0375" font-family="Cascadia, Segoe UI Emoji" font-size="28px" fill="#1e1e1e" text-anchor="middle" style="white-space: pre;" direction="ltr" dominant-baseline="alphabetic">GetToken()</text></g><g mask="url(#mask-y-yfIK_a-0CHqTsrz86Ok)" stroke-linecap="round"><g transform="translate(1354.6835353317497 533.5714285714288) rotate(0 65.5700196186092 -121.66666666666669)"><path d="M0.5 0.91 C22.19 -39.9, 108.74 -203.54, 130.46 -244.1 M-0.69 0.34 C21.35 -40.39, 111.05 -202.18, 132.81 -242.97" stroke="#1e1e1e" stroke-width="2" fill="none"></path></g><g transform="translate(1354.6835353317497 533.5714285714288) rotate(0 65.5700196186092 -121.66666666666669)"><path d="M129.07 -218.25 C131.67 -227.58, 130.12 -235.19, 132.81 -242.97 M129.07 -218.25 C129.41 -227.8, 130.98 -236.72, 132.81 -242.97" stroke="#1e1e1e" stroke-width="2" fill="none"></path></g><g transform="translate(1354.6835353317497 533.5714285714288) rotate(0 65.5700196186092 -121.66666666666669)"><path d="M114.06 -226.44 C121.67 -233.12, 125.08 -238.02, 132.81 -242.97 M114.06 -226.44 C120.05 -232.93, 127.19 -238.81, 132.81 -242.97" stroke="#1e1e1e" stroke-width="2" fill="none"></path></g></g><mask id="mask-y-yfIK_a-0CHqTsrz86Ok"><rect x="0" y="0" fill="#fff" width="1585.823574568968" height="876.9047619047622"></rect><rect x="1346.4535518986017" y="395.1047619047621" fill="#000" width="147.60000610351562" height="33.6" opacity="1"></rect></mask><g transform="translate(1346.4535518986013 395.1047619047621) rotate(0 74.29046439354283 16.86788109093905)"><text x="73.80000305175781" y="27.0375" font-family="Cascadia, Segoe UI Emoji" font-size="28px" fill="#1e1e1e" text-anchor="middle" style="white-space: pre;" direction="ltr" dominant-baseline="alphabetic">Refresh()</text></g><g stroke-opacity="0.3" fill-opacity="0.3" stroke-linecap="round" transform="translate(1017.9761904761922 10) rotate(0 304.9999999999998 171.66666666666663)"><path d="M32 0 C165.1 -0.83, 299.49 0.4, 578 0 C598.19 3.13, 610.83 12.16, 610 32 C609.4 136.34, 610.69 239.82, 610 311.33 C606.93 331.14, 601.73 340.74, 578 343.33 C380.54 341.54, 181.64 342.95, 32 343.33 C11.59 343.15, 1.53 331.85, 0 311.33 C-0.06 253.55, 2.43 198.38, 0 32 C2.79 8.29, 7.61 -3.07, 32 0" stroke="none" stroke-width="0" fill="#a5d8ff"></path><path d="M32 0 C143.41 0.01, 254.65 1.13, 578 0 M32 0 C246.63 1.57, 460.91 1.75, 578 0 M578 0 C597.66 -1.75, 609.44 11.9, 610 32 M578 0 C597.7 1.99, 609.77 9.98, 610 32 M610 32 C608.86 106.42, 609.47 179.91, 610 311.33 M610 32 C610.62 100.49, 610.41 168.38, 610 311.33 M610 311.33 C609.77 333.56, 600.95 341.92, 578 343.33 M610 311.33 C608.95 332.59, 601.55 342.76, 578 343.33 M578 343.33 C391.62 345.19, 204.34 344.55, 32 343.33 M578 343.33 C395.06 343.55, 212.11 343.22, 32 343.33 M32 343.33 C11.58 345.3, -0.34 334.27, 0 311.33 M32 343.33 C10.49 345.28, 1.41 331.99, 0 311.33 M0 311.33 C-0.73 211.09, -0.33 109.54, 0 32 M0 311.33 C-0.88 252.83, -1.22 194.08, 0 32 M0 32 C-1.87 11.39, 9.02 0.78, 32 0 M0 32 C0.96 12.89, 10.15 -0.26, 32 0" stroke="#1e1e1e" stroke-width="2" fill="none"></path></g><g stroke-linecap="round" transform="translate(1024.642857142856 221.42857142857167) rotate(0 147.50000000000045 30.833333333333314)"><path d="M15.42 0 C99.46 1.7, 185.28 0.52, 279.58 0 M15.42 0 C106.55 -1.37, 196.11 -0.97, 279.58 0 M279.58 0 C289.97 0.85, 294.63 6.3, 295 15.42 M279.58 0 C290.27 -0.36, 293.56 7.36, 295 15.42 M295 15.42 C296.06 21.51, 296.69 29.71, 295 46.25 M295 15.42 C295.44 27.46, 294.01 39.2, 295 46.25 M295 46.25 C294.84 57.46, 290.25 61.68, 279.58 61.67 M295 46.25 C296.79 55.05, 292.11 63.72, 279.58 61.67 M279.58 61.67 C215.95 59.49, 149.77 59.23, 15.42 61.67 M279.58 61.67 C225.3 61.36, 171.12 60.68, 15.42 61.67 M15.42 61.67 C6.94 62.82, -0.62 56.31, 0 46.25 M15.42 61.67 C4.42 61.88, -1.95 54.9, 0 46.25 M0 46.25 C-0.76 40.65, -1.93 30.5, 0 15.42 M0 46.25 C-0.17 37.49, 0.76 26.45, 0 15.42 M0 15.42 C-0.16 5.24, 4.05 0.96, 15.42 0 M0 15.42 C2.11 6.56, 3.73 1.03, 15.42 0" stroke="#1e1e1e" stroke-width="2" fill="none"></path></g><g transform="translate(1032.742863246372 235.46190476190498) rotate(0 139.39999389648438 16.799999999999997)"><text x="139.39999389648438" y="27.0375" font-family="Cascadia, Segoe UI Emoji" font-size="28px" fill="#1e1e1e" text-anchor="middle" style="white-space: pre;" direction="ltr" dominant-baseline="alphabetic">AuthTokenProvider</text></g><g stroke-linecap="round" transform="translate(1336.5476190476174 202.85714285714312) rotate(0 135.83333333333348 39.52380952380946)"><path d="M19.76 0 C82.49 -0.65, 144.68 -0.79, 251.9 0 M19.76 0 C94.55 -0.09, 168.5 -0.37, 251.9 0 M251.9 0 C264.91 0.31, 272.77 7.07, 271.67 19.76 M251.9 0 C263.93 -2.22, 271.04 5.53, 271.67 19.76 M271.67 19.76 C271.75 31.97, 269.8 45.33, 271.67 59.29 M271.67 19.76 C271.14 29.28, 271.66 40.53, 271.67 59.29 M271.67 59.29 C272.46 73.01, 265.93 77.59, 251.9 79.05 M271.67 59.29 C272.15 74.23, 266.98 79, 251.9 79.05 M251.9 79.05 C193.61 77.99, 132.49 77.85, 19.76 79.05 M251.9 79.05 C189.37 77.78, 127.82 77.65, 19.76 79.05 M19.76 79.05 C6.46 79.9, -1.36 70.85, 0 59.29 M19.76 79.05 C6.07 78.67, 1.41 71.59, 0 59.29 M0 59.29 C0.67 48.86, -1.82 38.47, 0 19.76 M0 59.29 C-0.81 46.07, -1.09 31.81, 0 19.76 M0 19.76 C-0.65 5.9, 6.27 -1.16, 19.76 0 M0 19.76 C-0.85 7.99, 8.26 1.04, 19.76 0" stroke="#1e1e1e" stroke-width="2" fill="none"></path></g><g transform="translate(1357.5809493291931 225.58095238095257) rotate(0 114.80000305175804 16.799999999999997)"><text x="114.80000305175781" y="27.0375" font-family="Cascadia, Segoe UI Emoji" font-size="28px" fill="#1e1e1e" text-anchor="middle" style="white-space: pre;" direction="ltr" dominant-baseline="alphabetic">TokenRefresher</text></g><g stroke-linecap="round" transform="translate(1194.6428571428555 36.42857142857167) rotate(0 147.50000000000045 30.833333333333314)"><path d="M15.42 0 C78.29 -2.19, 142.21 -0.42, 279.58 0 M15.42 0 C87.82 -1.55, 160.66 -2.35, 279.58 0 M279.58 0 C291.22 0.26, 293.28 3.34, 295 15.42 M279.58 0 C291.85 1, 295.9 6.94, 295 15.42 M295 15.42 C296.9 25.49, 297.14 36.72, 295 46.25 M295 15.42 C296.18 22.99, 294.53 29.35, 295 46.25 M295 46.25 C294.34 58.11, 288.37 61.85, 279.58 61.67 M295 46.25 C293.66 58.66, 291.32 63.25, 279.58 61.67 M279.58 61.67 C217.72 63.82, 154.73 65.06, 15.42 61.67 M279.58 61.67 C207.5 60.79, 135.68 61.3, 15.42 61.67 M15.42 61.67 C6.7 59.92, -1.61 56.79, 0 46.25 M15.42 61.67 C5.84 63.02, 0.97 58.26, 0 46.25 M0 46.25 C1.62 40.73, -0.13 29.65, 0 15.42 M0 46.25 C0.73 38.71, 0.75 30.85, 0 15.42 M0 15.42 C1.99 4.97, 5.23 -1.83, 15.42 0 M0 15.42 C-1.48 4.55, 7.28 -1.97, 15.42 0" stroke="#1e1e1e" stroke-width="2" fill="none"></path></g><g transform="translate(1210.9428601946138 50.461904761904975) rotate(0 131.1999969482422 16.80000000000001)"><text x="131.1999969482422" y="27.0375" font-family="Cascadia, Segoe UI Emoji" font-size="28px" fill="#1e1e1e" text-anchor="middle" style="white-space: pre;" direction="ltr" dominant-baseline="alphabetic">CredentialsStore</text></g><g mask="url(#mask-LPXBxq7j7REkNoTVuNbGQ)" stroke-linecap="round"><g transform="translate(1256.5476190476193 108.09523809523841) rotate(0 -37.5 52.5)"><path d="M0.7 -0.44 C-12.03 17.02, -62.87 87.13, -75.5 104.54 M-0.4 -1.71 C-13.39 15.92, -64.12 88.08, -76.71 105.83" stroke="#1e1e1e" stroke-width="2" fill="none"></path></g><g transform="translate(1256.5476190476193 108.09523809523841) rotate(0 -37.5 52.5)"><path d="M-70.15 81.71 C-73.34 89.83, -75.8 99.4, -76.71 105.83 M-70.15 81.71 C-70.89 86.85, -73.65 92.52, -76.71 105.83" stroke="#1e1e1e" stroke-width="2" fill="none"></path></g><g transform="translate(1256.5476190476193 108.09523809523841) rotate(0 -37.5 52.5)"><path d="M-56.18 91.58 C-64.51 96.13, -72.14 102.05, -76.71 105.83 M-56.18 91.58 C-60.02 94.46, -65.84 97.96, -76.71 105.83" stroke="#1e1e1e" stroke-width="2" fill="none"></path></g></g><mask id="mask-LPXBxq7j7REkNoTVuNbGQ"><rect x="0" y="0" fill="#fff" width="1431.5476190476193" height="313.0952380952384"></rect><rect x="1169.8476182846798" y="143.7952380952384" fill="#000" width="98.4000015258789" height="33.6" opacity="1"></rect></mask><g transform="translate(1169.8476182846798 143.7952380952384) rotate(0 48.69269718865394 16.361835686070847)"><text x="49.20000076293945" y="27.0375" font-family="Cascadia, Segoe UI Emoji" font-size="28px" fill="#1e1e1e" text-anchor="middle" style="white-space: pre;" direction="ltr" dominant-baseline="alphabetic">Load()</text></g><g mask="url(#mask-WpbvvLLN9rgbDT2TvK5Bz)" stroke-linecap="round"><g transform="translate(1624.2142857142844 250.68747368770937) rotate(0 110.92857142857156 -1.357081554519624)"><path d="M-0.29 -0.79 C36.47 -1.3, 184.77 -2.15, 221.64 -2.34 M1.76 1.42 C38.24 0.46, 183.64 -3.39, 220.58 -4.26" stroke="#1e1e1e" stroke-width="2" fill="none"></path></g><g transform="translate(1624.2142857142844 250.68747368770937) rotate(0 110.92857142857156 -1.357081554519624)"><path d="M197.31 4.88 C205.07 0.99, 216.12 -3.75, 220.58 -4.26 M197.31 4.88 C206.78 2.11, 213.47 -2.24, 220.58 -4.26" stroke="#1e1e1e" stroke-width="2" fill="none"></path></g><g transform="translate(1624.2142857142844 250.68747368770937) rotate(0 110.92857142857156 -1.357081554519624)"><path d="M196.88 -12.22 C204.91 -9.41, 216.14 -7.44, 220.58 -4.26 M196.88 -12.22 C206.57 -8.7, 213.42 -6.76, 220.58 -4.26" stroke="#1e1e1e" stroke-width="2" fill="none"></path></g></g><mask id="mask-WpbvvLLN9rgbDT2TvK5Bz"><rect x="0" y="0" fill="#fff" width="1946.0714285714275" height="353.4016367967486"></rect><rect x="1702.3428579057954" y="232.53039213318974" fill="#000" width="65.5999984741211" height="33.6" opacity="1"></rect></mask><g transform="translate(1702.3428579057954 232.53039213318974) rotate(0 32.546600611507984 16.73320322337561)"><text x="32.79999923706055" y="27.0375" font-family="Cascadia, Segoe UI Emoji" font-size="28px" fill="#1e1e1e" text-anchor="middle" style="white-space: pre;" direction="ltr" dominant-baseline="alphabetic">Do()</text></g><g mask="url(#mask-e0j9vDZg9QznzcCFMAZF3)" stroke-linecap="round"><g transform="translate(1843.4047619047615 213.7579437741821) rotate(0 -111.76190476190368 1.522774591899278)"><path d="M0.68 -0.05 C-36.6 0.56, -186.13 2.46, -223.48 2.98 M-0.43 -1.13 C-37.88 -0.26, -187.12 3.56, -224.41 4.48" stroke="#1e1e1e" stroke-width="2" fill="none"></path></g><g transform="translate(1843.4047619047615 213.7579437741821) rotate(0 -111.76190476190368 1.522774591899278)"><path d="M-201.14 -4.66 C-208.66 -1.56, -216.06 1.41, -224.41 4.48 M-201.14 -4.66 C-208.16 -2.95, -215.41 1.49, -224.41 4.48" stroke="#1e1e1e" stroke-width="2" fill="none"></path></g><g transform="translate(1843.4047619047615 213.7579437741821) rotate(0 -111.76190476190368 1.522774591899278)"><path d="M-200.71 12.44 C-208.27 10.12, -215.8 7.67, -224.41 4.48 M-200.71 12.44 C-207.8 8.96, -215.18 8.22, -224.41 4.48" stroke="#1e1e1e" stroke-width="2" fill="none"></path></g></g><mask id="mask-e0j9vDZg9QznzcCFMAZF3"><rect x="0" y="0" fill="#fff" width="2166.928571428569" height="316.80349295798067"></rect><rect x="1657.8428540911" y="198.48071836608136" fill="#000" width="147.60000610351562" height="33.6" opacity="1"></rect></mask><g transform="translate(1657.8428540911 198.48071836608136) rotate(0 73.69472062329305 16.955115858418893)"><text x="73.80000305175781" y="27.0375" font-family="Cascadia, Segoe UI Emoji" font-size="28px" fill="#1e1e1e" text-anchor="middle" style="white-space: pre;" direction="ltr" dominant-baseline="alphabetic">New Token</text></g><g mask="url(#mask-vFnPRR0rWDkZZ6swbZomR)" stroke-linecap="round"><g transform="translate(1831.7380952380954 622.1034402394289) rotate(0 -196.9999999999991 -0.8147140910079145)"><path d="M0.24 1.06 C-65.16 0.97, -327.33 -0.94, -393.19 -1.34 M-1.09 0.57 C-66.5 0.18, -328.47 -3.23, -393.71 -3.32" stroke="#1e1e1e" stroke-width="2" fill="none"></path></g><g transform="translate(1831.7380952380954 622.1034402394289) rotate(0 -196.9999999999991 -0.8147140910079145)"><path d="M-370.15 -11.68 C-373.91 -8.34, -380.66 -9.29, -393.71 -3.32 M-370.15 -11.68 C-377.87 -8.79, -384.47 -5.99, -393.71 -3.32" stroke="#1e1e1e" stroke-width="2" fill="none"></path></g><g transform="translate(1831.7380952380954 622.1034402394289) rotate(0 -196.9999999999991 -0.8147140910079145)"><path d="M-370.28 5.42 C-373.89 4.8, -380.61 -0.13, -393.71 -3.32 M-370.28 5.42 C-378.03 2.82, -384.59 0.13, -393.71 -3.32" stroke="#1e1e1e" stroke-width="2" fill="none"></path></g></g><mask id="mask-vFnPRR0rWDkZZ6swbZomR"><rect x="0" y="0" fill="#fff" width="2325.7380952380936" height="723.7328684214447"></rect><rect x="1560.9380921863385" y="604.4887261484209" fill="#000" width="147.60000610351562" height="33.6" opacity="1"></rect></mask><g transform="translate(1560.9380921863385 604.4887261484209) rotate(0 74.06595870892033 16.485526900864215)"><text x="73.80000305175781" y="27.0375" font-family="Cascadia, Segoe UI Emoji" font-size="28px" fill="#1e1e1e" text-anchor="middle" style="white-space: pre;" direction="ltr" dominant-baseline="alphabetic">New Token</text></g><g stroke-linecap="round" transform="translate(886.0714285714298 554.2857142857143) rotate(0 105.11904761904725 21.799999999999997)"><path d="M10.9 0 C70.4 -1.32, 127.34 -1.29, 199.34 0 M10.9 0 C69.83 -0.86, 129.66 -0.92, 199.34 0 M199.34 0 C207.8 1.18, 212.06 3.34, 210.24 10.9 M199.34 0 C205.47 2.14, 208.71 4.97, 210.24 10.9 M210.24 10.9 C211.41 15.89, 212.14 21.62, 210.24 32.7 M210.24 10.9 C210 16.1, 209.36 21.67, 210.24 32.7 M210.24 32.7 C210.77 41.11, 205.15 42.53, 199.34 43.6 M210.24 32.7 C208.71 39.71, 204.33 42.01, 199.34 43.6 M199.34 43.6 C148.74 45.59, 103.79 43.48, 10.9 43.6 M199.34 43.6 C132.9 41.93, 66.64 42.45, 10.9 43.6 M10.9 43.6 C3.35 45.04, 1.27 41.47, 0 32.7 M10.9 43.6 C2.73 41.52, -2.14 39.51, 0 32.7 M0 32.7 C1 26.34, -1.21 17.15, 0 10.9 M0 32.7 C0.3 24.95, 0.98 18.01, 0 10.9 M0 10.9 C0.46 2.89, 5.25 -1.69, 10.9 0 M0 10.9 C1.07 2.43, 2.18 -2.1, 10.9 0" stroke="#1e1e1e" stroke-width="2" fill="none"></path></g><g transform="translate(892.7904746645982 559.2857142857143) rotate(0 98.4000015258789 16.799999999999997)"><text x="98.4000015258789" y="27.0375" font-family="Cascadia, Segoe UI Emoji" font-size="28px" fill="#1e1e1e" text-anchor="middle" style="white-space: pre;" direction="ltr" dominant-baseline="alphabetic">RestApiUtils</text></g><g mask="url(#mask-aLT1XONFFaW9l0NLcaiqF)" stroke-linecap="round"><g transform="translate(1490.5534417018098 191.19047619047626) rotate(0 -49.93402884621537 -44.04761904761904)"><path d="M1.01 0.77 C-15.7 -13.98, -83.45 -74.46, -100.27 -89.27 M0.08 0.13 C-16.83 -14.45, -84.63 -73.87, -101.43 -88.35" stroke="#1e1e1e" stroke-width="2" fill="none"></path></g><g transform="translate(1490.5534417018098 191.19047619047626) rotate(0 -49.93402884621537 -44.04761904761904)"><path d="M-78.09 -79.38 C-83.78 -82.55, -94.05 -84.64, -101.43 -88.35 M-78.09 -79.38 C-84.68 -81.63, -92.38 -85.48, -101.43 -88.35" stroke="#1e1e1e" stroke-width="2" fill="none"></path></g><g transform="translate(1490.5534417018098 191.19047619047626) rotate(0 -49.93402884621537 -44.04761904761904)"><path d="M-89.32 -66.48 C-91.54 -73.64, -98.43 -79.61, -101.43 -88.35 M-89.32 -66.48 C-92.68 -72.52, -97.03 -80.21, -101.43 -88.35" stroke="#1e1e1e" stroke-width="2" fill="none"></path></g></g><mask id="mask-aLT1XONFFaW9l0NLcaiqF"><rect x="0" y="0" fill="#fff" width="1690.4214993942405" height="379.28571428571433"></rect><rect x="1391.419412092655" y="130.3428571428572" fill="#000" width="98.4000015258789" height="33.6" opacity="1"></rect></mask><g transform="translate(1391.4194120926554 130.3428571428572) rotate(0 48.92516028503428 16.595698960125446)"><text x="49.20000076293945" y="27.0375" font-family="Cascadia, Segoe UI Emoji" font-size="28px" fill="#1e1e1e" text-anchor="middle" style="white-space: pre;" direction="ltr" dominant-baseline="alphabetic">Save()</text></g><g stroke-linecap="round" transform="translate(14.28571428571422 510.83333333333314) rotate(0 145 21.799999999999997)"><path d="M10.9 0 C91.4 -1.58, 168.51 -1.29, 279.1 0 M10.9 0 C72.91 -1.88, 136.03 -1.13, 279.1 0 M279.1 0 C286.14 0.52, 290.39 5.38, 290 10.9 M279.1 0 C286.19 0.64, 290.57 3.3, 290 10.9 M290 10.9 C290.94 16.89, 288.31 22.43, 290 32.7 M290 10.9 C290.38 17.21, 290.28 21.03, 290 32.7 M290 32.7 C288.06 40.05, 286.46 42.46, 279.1 43.6 M290 32.7 C289.25 40.02, 288.17 44.05, 279.1 43.6 M279.1 43.6 C212.76 42.53, 144.96 44.72, 10.9 43.6 M279.1 43.6 C221.84 43.28, 165.35 43.24, 10.9 43.6 M10.9 43.6 C3.62 43.53, 0.76 41.81, 0 32.7 M10.9 43.6 C5.09 45.87, -1.84 39.19, 0 32.7 M0 32.7 C-0.01 26.03, -1.68 21.66, 0 10.9 M0 32.7 C-0.69 26.02, 0.14 19.26, 0 10.9 M0 10.9 C-1.82 2.89, 2.37 0.53, 10.9 0 M0 10.9 C-1.26 5.48, 1.91 -0.08, 10.9 0" stroke="#1e1e1e" stroke-width="2" fill="none"></path></g><g transform="translate(101.88571275983531 515.8333333333331) rotate(0 57.400001525878906 16.799999999999997)"><text x="57.400001525878906" y="27.0375" font-family="Cascadia, Segoe UI Emoji" font-size="28px" fill="#1e1e1e" text-anchor="middle" style="white-space: pre;" direction="ltr" dominant-baseline="alphabetic">/stream</text></g><g stroke-linecap="round"><g transform="translate(314.88095238095275 530.6675137456151) rotate(0 64.64285714285666 -1.098305424222012)"><path d="M0.84 -0.43 C22.73 -0.86, 108.73 -1.23, 130.25 -1.46 M-0.17 -1.7 C21.73 -1.96, 108.19 -2.82, 129.8 -3.2" stroke="#1e1e1e" stroke-width="2" fill="none"></path></g><g transform="translate(314.88095238095275 530.6675137456151) rotate(0 64.64285714285666 -1.098305424222012)"><path d="M106.43 5.66 C110.58 5.22, 117.46 2.82, 129.8 -3.2 M106.43 5.66 C113.74 3.24, 122.46 0.86, 129.8 -3.2" stroke="#1e1e1e" stroke-width="2" fill="none"></path></g><g transform="translate(314.88095238095275 530.6675137456151) rotate(0 64.64285714285666 -1.098305424222012)"><path d="M106.2 -11.44 C110.56 -8.26, 117.49 -7.04, 129.8 -3.2 M106.2 -11.44 C113.53 -8.19, 122.33 -4.89, 129.8 -3.2" stroke="#1e1e1e" stroke-width="2" fill="none"></path></g></g><mask></mask><g stroke-linecap="round"><g transform="translate(976.872527866537 521.071428571428) rotate(0 0.00007479682585653791 8.607142857143174)"><path d="M0.3 -0.19 C0.32 2.61, -0.08 13.97, -0.12 16.94 M-0.21 -0.76 C-0.25 2.1, -0.61 14.57, -0.61 17.5" stroke="#1e1e1e" stroke-width="2" fill="none"></path></g><g transform="translate(976.872527866537 521.071428571428) rotate(0 0.00007479682585653791 8.607142857143174)"><path d="M-3.42 9.37 C-2.83 11.37, -2.17 13.64, -0.61 17.5 M-3.42 9.37 C-2.41 12.64, -1.27 15.77, -0.61 17.5" stroke="#1e1e1e" stroke-width="2" fill="none"></path></g><g transform="translate(976.872527866537 521.071428571428) rotate(0 0.00007479682585653791 8.607142857143174)"><path d="M2.47 9.46 C1.54 11.46, 0.67 13.71, -0.61 17.5 M2.47 9.46 C1.23 12.72, 0.12 15.81, -0.61 17.5" stroke="#1e1e1e" stroke-width="2" fill="none"></path></g></g><mask></mask></svg>
